<?xml version='1.0' encoding='utf-8'?>
<svg xmlns="http://www.w3.org/2000/svg" width="91.44mm" height="91.44mm" version="1.1" style="shape-rendering:geometricPrecision; text-rendering:geometricPrecision; image-rendering:optimizeQuality; fill-rule:evenodd; clip-rule:evenodd" viewBox="0 0 9144 9144"> <defs> <style type="text/css">  .fil0 {fill:#F0F0F0} .fil1 {fill:#011627;fill-rule:nonzero}  </style> </defs> <g id="Layer_x0020_1"> <metadata id="CorelCorpID_0Corel-Layer"/> <g id="_2744577821200"> <polygon class="fil0" points="0,0 9144,0 9144,9144 0,9144 "/> <path class="fil1" d="M3258 2367l2628 0c48,0 87,39 87,87l0 4236c0,48 -39,87 -87,87l-2628 0c-48,0 -87,-39 -87,-87l0 -4236c0,-48 39,-87 87,-87zm1248 3903l132 0c48,0 87,39 87,90l0 3c0,48 -39,87 -87,87l-132 0c-48,0 -87,-39 -87,-87l0 -3c0,-51 39,-90 87,-90zm1293 -3216l-2454 0 0 2889 2454 0 0 -2889zm-2454 -177l2454 0 0 -333 -2454 0 0 333zm2454 3243l-2454 0 0 480 2454 0 0 -480z"/> </g> </g> </svg>